<?xml version="1.0" encoding="UTF-8"?>
<svg id="Layer_1" xmlns="http://www.w3.org/2000/svg" version="1.1" viewBox="0 0 106.73 99.95">
  <!-- Generator: Adobe Illustrator 29.0.1, SVG Export Plug-In . SVG Version: 2.1.0 Build 192)  -->
  <defs>
    <style>
      .st0 {
        fill: none;
      }

      .st1 {
        fill: #406ab3;
      }

      .st2 {
        fill: #787878;
      }
    </style>
  </defs>
  <path class="st0" d="M36.33,22.64c-12.85,5.94-18.4,22.66-12.39,37.38,2.79,6.82,7.58,11.97,13.19,14.98V22.3c-.27.11-.54.21-.8.33Z"/>
  <path class="st1" d="M58.13,75.88c-2.66,1.23-5.42,1.87-8.18,2.03v1.7c9.36-1,17.7-6.58,22.14-15.01h-.93c-2.53,4.91-7.96,8.92-13.04,11.27Z"/>
  <path class="st1" d="M23.95,60.01c-6.01-14.72-.47-31.43,12.39-37.38.27-.12.54-.22.8-.33v-1.64c-10.9,4.34-18.65,15.5-18.65,28.59s7.75,24.25,18.65,28.59v-2.86c-5.61-3.01-10.4-8.16-13.19-14.98Z"/>
  <path class="st1" d="M62.53,27.11h0c3.32,2.95,6.08,6.79,7.94,11.38.36.83.63,1.7.8,2.6l.15.91h.72l-.2-1.25-1.56-9.68-1.08-6.65-.72.12.23,1.86c.01.11,0,.22-.02.32-.16.75-1.08,1.04-1.65.53-.85-.89-1.76-1.71-2.7-2.47-.96-.78-1.88-1.41-2.69-1.89-3.56-2.2-7.59-3.57-11.79-4v2.06c4.54.82,8.9,2.96,12.58,6.17Z"/>
  <path d="M73.48,21.95h0c-.5,0,0,0,0,0Z"/>
  <path class="st2" d="M94.25,76.22l-.83.83c-3.23,3.25-7.24,3.27-10.46.51-.95-.83-1.7-1.87-2.19-3.03l-6.42-16.82c-.71-1.68-1.64-3.26-2.77-4.7-.95-1.12-2.1-2.05-3.39-2.74,8.68-1.91,15.37-8.68,15.37-19.47,0-12.88-9.54-20.03-20.6-20.03h-10.87v2h9.15c9.94,0,17.74,8.07,17.74,18.03s-7.77,18.03-17.73,18.03h-9.15v-.13s0,0,0,0v2.12h9.33c4.13.37,7.45,4.15,9.39,8.83.4.98.8,1.96,1.24,2.93l5.41,14.02c.17.43.36.84.58,1.24.66,1.22,1.59,2.27,2.73,3.07.89.61,1.87,1.07,2.91,1.35,3.75,1.01,7.72-.56,9.97-3.72l1.22-1.72-.62-.61Z"/>
  <path class="st2" d="M45.04,12.25h-10.44v.85c.26,0,.75,0,1.62,0,2.84,0,5.15,2.31,5.15,5.15v58.34c0,2.83-2.3,5.13-5.13,5.13h-1.2v.85h16.36v-.85h-1.24c-2.83,0-5.13-2.3-5.13-5.13V12.25Z"/>
</svg>